# xmcd
#
# Track frame offsets:
#  150
#  15847
#  29325
#  45531
#  56187
#  71552
#  85752
#  97180
#  110764
#  122751
#  137898
#  148933
#  161080
#  176066
#  195126
#  210458
#  229245
#  242432
#
# Disc length: 3377 seconds
#
# Revision: 0
# Processed by: cddbd v1.5.1PL2 Copyright (c) Steve Scherf et al.
# Submitted via: Collectorz.com_Music_Collector 6.9
#
DISCID=fc0d2f12
DTITLE=kenny Rogers - For The Good Times
DYEAR=2001
DGENRE=Country
TTITLE0=For The Good Times
TTITLE1=Ruby, Don't Take Your Love To Town
TTITLE2=The Way It Used To Be
TTITLE3=Ticket To Nowhere
TTITLE4=Tell It All Brother
TTITLE5=But You Know I Love You
TTITLE6=Hurry Up Love
TTITLE7=Sleep Comes Easy
TTITLE8=Poem For My Little Lady
TTITLE9=Heeed The Call
TTITLE10=She Even Woke Me Up
TTITLE11=Me And Bobby McGee
TTITLE12=Shirts Without A Name
TTITLE13=The King of Oak Streeet
TTITLE14=Just Dropped In
TTITLE15=I Believe In Music
TTITLE16=Run Thru Your Mind
TTITLE17=Always Leaving Always Gone
EXTD=
EXTT0=
EXTT1=
EXTT2=
EXTT3=
EXTT4=
EXTT5=
EXTT6=
EXTT7=
EXTT8=
EXTT9=
EXTT10=
EXTT11=
EXTT12=
EXTT13=
EXTT14=
EXTT15=
EXTT16=
EXTT17=
PLAYORDER=
